<?xml version="1.0" encoding="utf-8"?>
<!-- Generator: Adobe Illustrator 26.3.1, SVG Export Plug-In . SVG Version: 6.00 Build 0)  -->
<svg version="1.1" id="Layer_1" xmlns="http://www.w3.org/2000/svg" xmlns:xlink="http://www.w3.org/1999/xlink" x="0px" y="0px" 
	width="171.1px" height="171.1px" 
	 viewBox="0 0 171.1 171.1" enable-background="new 0 0 171.1 171.1" xml:space="preserve">
<path fill="#ED225D" d="M25.6,30.9c-0.5-0.6-1.1-1.1-1.8-1.5c-0.7-0.4-1.6-0.6-2.6-0.6c-0.9,0-1.8,0.2-2.5,0.6s-1.4,0.9-1.9,1.5
	s-0.9,1.3-1.2,2.1s-0.4,1.6-0.4,2.4c0,0.8,0.1,1.6,0.4,2.3c0.3,0.8,0.7,1.5,1.2,2.1s1.1,1.1,1.9,1.5c0.7,0.4,1.6,0.6,2.5,0.6
	c1,0,1.8-0.2,2.6-0.6c0.7-0.4,1.3-0.9,1.8-1.5s0.8-1.3,1.1-2.1c0.2-0.8,0.4-1.6,0.4-2.4c0-0.8-0.1-1.6-0.4-2.3
	C26.5,32.3,26.1,31.6,25.6,30.9z"/>
<path fill="#ED225D" d="M0,0v67.6h171.1V0H0z M31.5,39.6c-0.5,1.3-1.1,2.4-2,3.4s-1.9,1.7-3.1,2.3s-2.6,0.9-4.2,0.9
	c-1.4,0-2.8-0.3-3.9-0.9c-1.2-0.6-2.1-1.4-2.8-2.4h-0.1v12.8h-5.1V25.3h4.9v2.8h0.1c0.3-0.4,0.6-0.8,1-1.2s0.9-0.8,1.5-1.1
	c0.6-0.3,1.3-0.6,2-0.8c0.7-0.2,1.6-0.3,2.5-0.3c1.4,0,2.8,0.3,4,0.8s2.3,1.3,3.1,2.3c0.9,1,1.5,2.1,2,3.4s0.7,2.7,0.7,4.2
	S32,38.3,31.5,39.6z M53.3,40.3c-0.6,1.3-1.4,2.4-2.3,3.3c-1,0.9-2.1,1.6-3.5,2.1s-2.7,0.7-4.2,0.7c-2.5,0-4.6-0.6-6.3-1.8
	c-1.2-0.8-2.1-1.8-2.9-3l3.7-3.4h0.1c0.4,1.2,1.1,2.1,2.1,2.8s2.2,1.1,3.5,1.1c0.8,0,1.5-0.1,2.2-0.4c0.7-0.3,1.3-0.6,1.8-1.1
	s0.9-1.1,1.2-1.8s0.4-1.5,0.4-2.4c0-1.2-0.2-2.1-0.6-2.9c-0.4-0.8-0.9-1.4-1.5-1.8c-0.6-0.5-1.3-0.8-2.1-1s-1.6-0.3-2.4-0.3
	c-0.6,0-1.2,0-1.8,0.1s-1.3,0.2-1.9,0.4c-0.6,0.2-1.2,0.3-1.8,0.5s-1.1,0.4-1.5,0.6L36,15.7h17v4.6H40.7l-0.3,6.5
	c0.5-0.1,1-0.2,1.7-0.3c0.7-0.1,1.3-0.1,1.8-0.1c1.5,0,2.8,0.2,4.1,0.6s2.3,1,3.3,1.8c0.9,0.8,1.7,1.8,2.2,3s0.8,2.5,0.8,4
	C54.2,37.5,53.9,38.9,53.3,40.3z M66.5,23.5l-1.9,1.3l-1.9-2.5l-1.9,2.5L59,23.4l1.8-2.5l-3-1.1l0.7-2.2l3,1v-3.1H64v3.1l3-0.9
	l0.7,2.2l-2.9,1L66.5,23.5z"/>
<path d="M92.2,20.6c0,0-5.4-2.6-10.2-2.1c-4.8,0.5-6.5,1.2-8.3,3.5s-2.1,4.5-1.6,6.9s1.9,4.7,4.2,5.9c2.3,1.2,4.8,2.2,6.1,3
	c1.3,0.8,2,1.6,2,2.3s-1.2,1.8-2.6,1.9c-1.4,0.1-3.7-0.3-5.2-0.6s-4.7-1.9-4.7-1.9v7.2c0,0,3.6,1.5,5.7,1.6s5.3,0.2,7.7-0.5
	c2.5-0.7,4.3-2,5.5-4.1s1.7-4.8,0.7-7.5s-2.4-3.9-6.5-5.8c-4.1-1.9-5.5-2.7-5.5-3.9c0-1.3,2-2,4.2-1.7s5.9,1.8,5.9,1.8L92.2,20.6z"
	/>
<path d="M103.8,18.9h-8.1V48l8,0.1v-9.9L106,37c0,0,5.7,11.1,5.7,11h8.9l-9-16l9.3-13.1h-8.8l-8.4,12.7L103.8,18.9z"/>
<path d="M121.3,49.3h9.8l-4.8,6.4L121.3,49.3z"/>
<ellipse cx="126.3" cy="12.4" rx="5.2" ry="5.2"/>
<rect x="122.1" y="18.8" fill="#E70000" width="2.9" height="29.2"/>
<rect x="124.9" y="18.8" fill="#07D300" width="2.7" height="29.2"/>
<rect x="127.6" y="18.7" fill="#5441FF" width="2.9" height="29.2"/>
<path d="M152.2,18.7l9.5,29.4h-8.6l-1.5-5.5h-9.4l-1.3,5.5h-8.7l9.4-29.2L152.2,18.7z M147,23.6l-3.1,12.6h6.2L147,23.6z"/>
<linearGradient id="SVGID_1_" gradientUnits="userSpaceOnUse" x1="-3730.7815" y1="344.2732" x2="-3730.7815" y2="342.5848" gradientTransform="matrix(1.087815e-03 -0.8953 -19.5099 -2.371436e-02 6813.8774 -3275.9739)">
	<stop  offset="0" style="stop-color:#000000"/>
	<stop  offset="0.89" style="stop-color:#373737"/>
	<stop  offset="1" style="stop-color:#2A2A2A"/>
</linearGradient>
<path fill="url(#SVGID_1_)" fill-opacity="0.35" d="M109.9,55.3c0,0-15.5,0-16,0c-0.5,0.1-2.1,0.3-2.1,0.7s1.3,0.9,2.1,0.8
	c0.8-0.1,14.7-0.1,16-0.1s14.6,0.1,15.5,0.1s1.8-0.4,1.8-0.7s-1.4-0.7-2-0.7C124.6,55.4,111.1,55.2,109.9,55.3z"/>
</svg>
