<?xml version="1.0" encoding="utf-8"?>
<!-- Generator: Adobe Illustrator 26.3.1, SVG Export Plug-In . SVG Version: 6.00 Build 0)  -->
<svg version="1.1" id="Layer_1" xmlns="http://www.w3.org/2000/svg" xmlns:xlink="http://www.w3.org/1999/xlink" x="0px" y="0px"
	 width="171.2/px" height="67.6px" 
	 viewBox="0 0 171.2 67.6" enable-background="new 0 0 171.2 67.6" xml:space="preserve">
<path fill="#ED225D" d="M24.7,31c-0.5-0.6-1.1-1.1-1.8-1.4c-0.8-0.5-1.8-0.6-2.6-0.6s-1.8,0.2-2.6,0.6c-0.6,0.3-1.3,1-1.9,1.4
	c-0.5,0.6-1,1.3-1.1,2.1c-0.3,0.8-0.5,1.6-0.3,2.4c0,0.8,0.2,1.6,0.3,2.2c0.3,0.8,0.6,1.4,1.1,2.1c0.5,0.6,1.1,1.1,1.9,1.4
	c0.8,0.5,1.6,0.6,2.6,0.6s1.8-0.2,2.6-0.6c0.6-0.3,1.3-0.8,1.8-1.4c0.5-0.6,0.8-1.3,1.1-2.1c0.2-0.8,0.3-1.6,0.3-2.4
	c0-0.8-0.2-1.6-0.5-2.4C25.4,32.3,25.1,31.7,24.7,31z"/>
<path fill="#ED225D" d="M0,0v67.6h171.2V0H0z M31.5,39.5c-0.5,1.3-1.1,2.4-1.9,3.4c-0.8,1-1.9,1.8-3.1,2.2c-1.3,0.6-2.7,1-4.2,1
	c-1.3,0-2.7-0.3-3.9-1c-1.1-0.5-2.1-1.4-2.7-2.4h-0.3v12.9h-5.1V25.2h4.8V28h0.2c0.3-0.5,0.6-0.8,1-1.1c0.5-0.5,1-0.8,1.4-1.1
	c0.6-0.3,1.3-0.6,1.9-0.8c0.8-0.2,1.6-0.3,2.6-0.3c1.4,0,2.7,0.3,4,0.8c1.3,0.5,2.2,1.3,3.1,2.2c0.8,1,1.6,2.1,1.9,3.4
	c0.5,1.3,0.8,2.7,0.6,4.2C32.1,36.8,32,38.2,31.5,39.5z M53.3,40.3c-0.6,1.3-1.3,2.4-2.2,3.4c-1,1-2.2,1.6-3.5,2.1
	c-1.3,0.5-2.7,0.8-4.2,0.6c-2.2,0-4.5-0.5-6.3-1.8c-1.1-0.8-2.1-1.8-2.9-3.1l3.7-3.4H38c0.3,1.1,1.1,2.1,2.1,2.7
	c1,0.6,2.2,1.1,3.5,1.1c0.8,0,1.4-0.2,2.2-0.3c0.6-0.3,1.3-0.6,1.8-1.1c0.5-0.5,1-1.1,1.1-1.8c0.3-0.8,0.5-1.6,0.3-2.4
	c0-1-0.2-1.9-0.6-2.9c-0.3-0.6-0.8-1.3-1.4-1.8c-0.6-0.5-1.3-0.8-2.1-1c-0.8-0.2-1.6-0.3-2.4-0.3c-0.6,0-1.1,0-1.8,0.2
	c-0.6,0.2-1.3,0.2-1.9,0.3c-0.6,0.2-1.1,0.3-1.8,0.5c-0.5,0.2-1,0.3-1.4,0.6l0.5-16.2h17v4.7H40.8L40.5,27c0.5-0.2,1-0.2,1.8-0.3
	c0.6,0,1.1-0.2,1.8-0.2c1.4,0,2.7,0.2,4,0.6c1.3,0.3,2.2,1,3.4,1.8c1,0.8,1.8,1.8,2.2,3.1c0.5,1.3,0.8,2.6,0.8,4
	C54.2,37.3,53.9,38.9,53.3,40.3z M66.6,23.5l-1.9,1.3l-1.9-2.4l-1.9,2.6l-1.8-1.4l1.8-2.6l-3.1-1.1l0.6-2.2l3.1,1v-3.1H64v3.1l3.1-1
	l0.6,2.2l-2.9,1.1L66.6,23.5z"/>
<path d="M91.4,20.6c0,0-5.5-2.6-10.1-2.1c-4.8,0.5-6.4,1.1-8.4,3.5c-1.6,1.9-2.2,4.5-1.6,6.9c0.5,2.6,1.9,4.7,4.2,5.9
	c2.2,1.1,4.8,2.2,6.1,3.1c1.3,0.8,1.9,1.6,1.9,2.2c0,0.6-1.1,1.8-2.6,1.9c-1.8,0-3.5-0.2-5.1-0.6c-1.6-0.5-3.2-1.1-4.7-1.9v7.1
	c1.8,0.8,3.7,1.3,5.6,1.6c2.6,0.2,5.1,0,7.7-0.5c2.2-0.5,4.3-2.1,5.5-4c1.3-2.2,1.6-5,0.6-7.6c-1-2.7-2.4-3.9-6.4-5.8
	c-4-1.9-5.5-2.7-5.5-3.9c0-1.1,1.9-1.9,4.2-1.8c2.1,0.5,4,1,5.9,1.8L91.4,20.6z"/>
<path d="M102.8,19h-8v29.1l8,0.2v-10l2.2-1.1c0,0,5.6,11.1,5.6,10.9h8.8l-9-16.1l9.3-13H111l-8.4,12.7L102.8,19z"/>
<path d="M120.5,49.4h9.8l-4.8,6.4L120.5,49.4z"/>
<circle cx="125.3" cy="12.4" r="5.1"/>
<rect x="121.1" y="18.8" fill="#E70000" width="2.9" height="29.2"/>
<rect x="124" y="18.8" fill="#07D300" width="2.7" height="29.2"/>
<rect x="126.6" y="18.6" fill="#5441FF" width="2.9" height="29.2"/>
<path d="M151.2,18.6l9.5,29.5h-8.5l-1.4-5.5h-9.3l-1.4,5.5h-8.7l9.3-29.3L151.2,18.6z M146.1,23.6L143,36.2h6.3L146.1,23.6z"/>
<linearGradient id="SVGID_1_" gradientUnits="userSpaceOnUse" x1="-10920.1699" y1="6750.689" x2="-10920.1699" y2="6726.5493" gradientTransform="matrix(0 -0.36 -7.75 -1.000000e-02 -468.3999 -3875.9199)">
	<stop  offset="0" style="stop-color:#000000"/>
	<stop  offset="0.89" style="stop-color:#373737"/>
	<stop  offset="1" style="stop-color:#2A2A2A"/>
</linearGradient>
<path fill="url(#SVGID_1_)" fill-opacity="0.35" d="M109,55.4H93c-0.5,0.2-2.1,0.3-2.1,0.6c0,0.3,1.3,1,2.1,0.8s14.6-0.2,16.1-0.2
	l15.4,0.2c1,0,1.8-0.3,1.8-0.6c0-0.3-1.4-0.6-1.9-0.6S110.2,55.2,109,55.4z"/>
</svg>
