<?xml version="1.0" encoding="utf-8"?>
<!-- Generator: Adobe Illustrator 26.3.1, SVG Export Plug-In . SVG Version: 6.00 Build 0)  -->
<svg version="1.1" id="Layer_1" xmlns="http://www.w3.org/2000/svg" xmlns:xlink="http://www.w3.org/1999/xlink" x="0px" y="0px"
	 viewBox="0 0 213 84.1" style="enable-background:new 0 0 213 84.1;" xml:space="preserve">
<path style="fill:#ED225D;" d="M30.8,38.6c-0.6-0.8-1.4-1.4-2.2-1.8c-1-0.6-2.2-0.8-3.2-0.8c-1,0-2.2,0.2-3.2,0.8
	c-0.8,0.4-1.6,1.2-2.4,1.8c-0.6,0.8-1.2,1.6-1.4,2.6c-0.4,1-0.6,2-0.4,3c0,1,0.2,2,0.4,2.8c0.4,1,0.8,1.8,1.4,2.6
	c0.6,0.8,1.4,1.4,2.4,1.8c1,0.6,2,0.8,3.2,0.8c1.2,0,2.2-0.2,3.2-0.8c0.8-0.4,1.6-1,2.2-1.8c0.6-0.8,1-1.6,1.4-2.6
	c0.2-1,0.4-2,0.4-3c0-1-0.2-2-0.6-3C31.6,40.2,31.2,39.4,30.8,38.6z"/>
<path style="fill:#ED225D;" d="M0,0v84.1h213V0H0z M39.2,49.2c-0.6,1.6-1.4,3-2.4,4.2c-1,1.2-2.4,2.2-3.8,2.8
	c-1.6,0.8-3.4,1.2-5.2,1.2c-1.6,0-3.4-0.4-4.8-1.2c-1.4-0.6-2.6-1.8-3.4-3h-0.4v16h-6.4V31.4h6v3.4H19c0.4-0.6,0.8-1,1.2-1.4
	c0.6-0.6,1.2-1,1.8-1.4c0.8-0.4,1.6-0.8,2.4-1c1-0.2,2-0.4,3.2-0.4c1.8,0,3.4,0.4,5,1c1.6,0.6,2.8,1.6,3.8,2.8c1,1.2,2,2.6,2.4,4.2
	c0.6,1.6,1,3.4,0.8,5.2C40,45.8,39.8,47.6,39.2,49.2z M66.3,50.2c-0.8,1.6-1.6,3-2.8,4.2c-1.2,1.2-2.8,2-4.4,2.6
	c-1.6,0.6-3.4,1-5.2,0.8c-2.8,0-5.6-0.6-7.8-2.2c-1.4-1-2.6-2.2-3.6-3.8l4.6-4.2h0.2c0.4,1.4,1.4,2.6,2.6,3.4
	c1.2,0.8,2.8,1.4,4.4,1.4c1,0,1.8-0.2,2.8-0.4c0.8-0.4,1.6-0.8,2.2-1.4c0.6-0.6,1.2-1.4,1.4-2.2c0.4-1,0.6-2,0.4-3
	c0-1.2-0.2-2.4-0.8-3.6c-0.4-0.8-1-1.6-1.8-2.2c-0.8-0.6-1.6-1-2.6-1.2c-1-0.2-2-0.4-3-0.4c-0.8,0-1.4,0-2.2,0.2
	c-0.8,0.2-1.6,0.2-2.4,0.4c-0.8,0.2-1.4,0.4-2.2,0.6c-0.6,0.2-1.2,0.4-1.8,0.8l0.6-20.2h21.2v5.8H50.8l-0.4,8
	c0.6-0.2,1.2-0.2,2.2-0.4c0.8,0,1.4-0.2,2.2-0.2c1.8,0,3.4,0.2,5,0.8c1.6,0.4,2.8,1.2,4.2,2.2c1.2,1,2.2,2.2,2.8,3.8
	c0.6,1.6,1,3.2,1,5C67.5,46.4,67.1,48.4,66.3,50.2z M82.9,29.2l-2.4,1.6l-2.4-3L75.7,31l-2.2-1.8l2.2-3.2l-3.8-1.4l0.8-2.8l3.8,1.2
	v-3.8h3.2V23l3.8-1.2l0.8,2.8L80.7,26L82.9,29.2z"/>
<path d="M113.7,25.6c0,0-6.8-3.2-12.6-2.6c-6,0.6-8,1.4-10.4,4.4c-2,2.4-2.8,5.6-2,8.6c0.6,3.2,2.4,5.8,5.2,7.4
	c2.8,1.4,6,2.8,7.6,3.8c1.6,1,2.4,2,2.4,2.8s-1.4,2.2-3.2,2.4c-2.2,0-4.4-0.2-6.4-0.8c-2-0.6-4-1.4-5.8-2.4v8.8c2.2,1,4.6,1.6,7,2
	c3.2,0.2,6.4,0,9.6-0.6c2.8-0.6,5.4-2.6,6.8-5c1.6-2.8,2-6.2,0.8-9.4c-1.2-3.4-3-4.8-8-7.2s-6.8-3.4-6.8-4.8s2.4-2.4,5.2-2.2
	c2.6,0.6,5,1.2,7.4,2.2L113.7,25.6z"/>
<path d="M127.9,23.6h-10v36.2l10,0.2V47.6l2.8-1.4c0,0,7,13.8,7,13.6h11l-11.2-20l11.6-16.2h-11l-10.4,15.8L127.9,23.6z"/>
<path d="M149.9,61.5h12.2l-6,8L149.9,61.5z"/>
<circle cx="155.9" cy="15.4" r="6.4"/>
<rect x="150.7" y="23.4" style="fill:#E70000;" width="3.6" height="36.4"/>
<rect x="154.3" y="23.4" style="fill:#07D300;" width="3.4" height="36.4"/>
<rect x="157.5" y="23.2" style="fill:#5441FF;" width="3.6" height="36.4"/>
<path d="M188.2,23.2L200,59.9h-10.6l-1.8-6.8H176l-1.8,6.8h-10.8L175,23.4L188.2,23.2z M181.8,29.4L178,45h7.8L181.8,29.4z"/>
<linearGradient id="SVGID_1_" gradientUnits="userSpaceOnUse" x1="-8727.5713" y1="548.5195" x2="-8727.5713" y2="553.8109" gradientTransform="matrix(0 -0.36 7.75 1.000000e-02 -4133.6499 -3077.6699)">
	<stop  offset="0" style="stop-color:#000000"/>
	<stop  offset="0.89" style="stop-color:#373737"/>
	<stop  offset="1" style="stop-color:#2A2A2A"/>
</linearGradient>
<path style="fill:url(#SVGID_1_);fill-opacity:0.35;" d="M135.7,68.9h-20c-0.6,0.2-2.6,0.4-2.6,0.8c0,0.4,1.6,1.2,2.6,1
	s18.2-0.2,20-0.2l19.2,0.2c1.2,0,2.2-0.4,2.2-0.8c0-0.4-1.8-0.8-2.4-0.8S137.1,68.7,135.7,68.9z"/>
</svg>
